HIERARCHY
ROOT hip
{
	OFFSET 0.000000 0.000000 0.000000 
	CHANNELS 6 Xposition Yposition Zposition Xrotation Zrotation Yrotation
	JOINT abdomen
	{
		OFFSET 0.000000 3.402643 0.000000 
		CHANNELS 3 Xrotation Zrotation Yrotation
		JOINT chest
		{
			OFFSET 0.000000 8.438565 -0.680529 
			CHANNELS 3 Xrotation Zrotation Yrotation
			JOINT neck
			{
				OFFSET 0.000000 10.207942 -0.272212 
				CHANNELS 3 Xrotation Zrotation Yrotation
				JOINT head
				{
					OFFSET 0.000000 3.130431 0.000000 
					CHANNELS 3 Xrotation Zrotation Yrotation
					End Site
					{
						OFFSET 0.000000 3.130435 0.000000 
					}
				}
			}
			JOINT lCollar
			{
				OFFSET 3.470700 6.669187 -0.816635 
				CHANNELS 3 Yrotation Zrotation Xrotation
				JOINT lShldr
				{
					OFFSET 3.198488 0.000000 0.000000 
					CHANNELS 3 Zrotation Yrotation Xrotation
					JOINT lForeArm
					{
						OFFSET 10.139888 0.000000 0.000000 
						CHANNELS 3 Yrotation Zrotation Xrotation
						JOINT lHand
						{
							OFFSET 8.370511 0.000000 0.000000 
							CHANNELS 3 Zrotation Yrotation Xrotation
							End Site
							{
								OFFSET 4.083176 0.000000 0.000000 
							}
						}
					}
				}
			}
			JOINT rCollar
			{
				OFFSET -3.470700 6.669187 -0.816635 
				CHANNELS 3 Yrotation Zrotation Xrotation
				JOINT rShldr
				{
					OFFSET -3.198488 0.000000 0.000000 
					CHANNELS 3 Zrotation Yrotation Xrotation
					JOINT rForeArm
					{
						OFFSET -10.139888 0.000000 0.000000 
						CHANNELS 3 Yrotation Zrotation Xrotation
						JOINT rHand
						{
							OFFSET -8.370511 0.000000 0.000000 
							CHANNELS 3 Zrotation Yrotation Xrotation
							End Site
							{
								OFFSET -4.083176 0.000000 0.000000 
							}
						}
					}
				}
			}
		}
	}
	JOINT lThigh
	{
		OFFSET 5.308129 -1.633274 1.361059 
		CHANNELS 3 Xrotation Zrotation Yrotation
		JOINT lShin
		{
			OFFSET -2.041588 -20.007561 0.000000 
			CHANNELS 3 Xrotation Zrotation Yrotation
			JOINT lFoot
			{
				OFFSET 0.000000 -19.190928 -1.224953 
				CHANNELS 3 Xrotation Yrotation Zrotation
				End Site
				{
					OFFSET 0.000000 -2.449906 4.627600 
				}
			}
		}
	}
	JOINT rThigh
	{
		OFFSET -5.308129 -1.633274 1.361059 
		CHANNELS 3 Xrotation Zrotation Yrotation
		JOINT rShin
		{
			OFFSET 2.041588 -20.007561 0.000000 
			CHANNELS 3 Xrotation Zrotation Yrotation
			JOINT rFoot
			{
				OFFSET 0.000000 -19.190928 -1.224953 
				CHANNELS 3 Xrotation Yrotation Zrotation
				End Site
				{
					OFFSET 0.000000 -2.449906 4.627600 
				}
			}
		}
	}
}
MOTION
Frames: 6
Frame Time: 0.100000
-0.329991 48.863094 4.925920 -5.105265 0.000000 0.000000 -7.011478 -0.602087 -1.616189 -11.782303 -1.373168 -6.240663 0.000000 0.000000 0.000000 -5.697032 0.000000 -0.296476 -11.381392 12.659739 -1.737351 -31.262177 -32.386185 -29.748354 -146.547333 -26.741663 -35.378910 81.913811 -30.631542 37.257439 -9.560776 -16.723866 3.946369 32.430187 64.174118 -8.353459 127.101051 15.462996 -63.689182 -78.671013 78.858772 27.193474 -11.804566 5.604455 -0.338631 51.632065 -4.163554 -4.549817 -34.926807 1.396491 0.214625 -11.780955 -5.007376 0.412927 51.592720 4.120532 4.323512 -35.025932 -2.048129 -0.939079 
-0.338568 48.838753 4.942946 -5.238877 0.000000 0.000000 -7.771169 -1.024341 -4.118412 -12.133399 -1.423875 -6.547309 0.000000 0.000000 0.000000 -7.424171 0.000000 -0.834318 -11.903828 13.763395 -1.779271 -29.726728 -32.696632 -31.295603 -146.269485 -26.283089 -35.822536 82.724777 -29.633236 37.233727 -9.552898 -17.647684 4.131481 30.929304 63.901356 -9.382535 127.343376 14.792326 -65.206261 -80.523232 78.743629 27.053154 -11.931757 5.657272 -0.347661 52.188606 -4.187357 -4.630270 -35.210377 1.393363 0.236963 -11.933070 -5.022988 0.408766 52.168995 4.147539 4.397296 -35.310802 -2.025806 -1.005869 
-0.347286 48.810150 4.961079 -5.374509 0.000000 0.000000 -8.566172 -1.468965 -6.746094 -12.492470 -1.476666 -6.864538 0.000000 0.000000 0.000000 -6.646150 0.000000 -1.278210 -12.437156 14.897446 -1.823576 -28.156540 -33.012154 -32.875664 -145.985016 -25.789762 -36.265160 83.519234 -28.599703 37.208393 -9.542399 -18.592665 4.320606 29.393696 63.619881 -10.436395 127.589127 14.089778 -66.746948 -82.367653 78.600288 26.913494 -11.847878 5.695551 -0.341937 52.432919 -4.212000 -4.644559 -35.397617 1.347953 0.234700 -11.864972 -5.034114 0.411139 52.432388 4.181306 4.417516 -35.507763 -1.999719 -1.040366 
-0.354683 48.767330 4.980424 -5.488721 0.000000 0.000000 -9.350401 -1.920384 -9.380936 -12.807676 -1.527471 -7.160315 0.000000 0.000000 0.000000 -1.796279 0.000000 -1.157116 -12.900679 15.918430 -1.869318 -26.778807 -33.279690 -34.251595 -145.733749 -25.240328 -36.600742 84.049599 -27.632416 37.180981 -9.521501 -19.423054 4.485708 28.042646 63.360756 -11.368260 127.794907 13.393457 -68.047546 -83.748306 78.352119 26.809296 -11.794798 5.738566 -0.344356 52.794174 -4.236020 -4.688752 -35.691513 1.326680 0.251180 -11.816262 -5.046947 0.403257 52.794174 4.195370 4.456917 -35.792103 -1.986765 -1.081006 
-0.359295 48.700336 5.001089 -5.558071 0.000000 0.000000 -10.077767 -2.363021 -11.904633 -13.027172 -1.572216 -7.402600 0.000000 0.000000 0.000000 2.944785 0.000000 0.000000 -13.213695 16.682886 -1.915547 -25.820704 -33.446175 -35.186424 -145.555405 -24.613417 -36.723244 84.068237 -26.832827 37.151009 -9.482418 -20.003096 4.598752 27.095423 63.155003 -12.031353 127.917274 12.741463 -68.844315 -84.209175 77.922447 26.775345 -11.898870 5.772055 -0.353573 53.263714 -4.251324 -4.738951 -35.985428 1.304029 0.257325 -11.935519 -5.067729 0.411212 53.293072 4.217151 4.503047 -36.096165 -1.969969 -1.110618 
-0.360055 48.604282 5.022499 -5.565804 0.000000 0.000000 -10.708602 -2.781354 -14.209485 -13.112596 -1.607143 -7.565054 0.000000 0.000000 0.000000 3.361501 0.000000 2.316103 -13.315255 17.078787 -1.960796 -25.453354 -33.474422 -35.504097 -145.478729 -23.913023 -36.563808 83.409851 -26.296833 37.117310 -9.422103 -20.230560 4.638551 26.717764 63.023884 -12.313807 127.926315 12.177737 -68.949310 -83.421867 77.284378 26.834524 -12.118004 5.790978 -0.358987 53.822296 -4.231067 -4.809434 -36.327309 1.309619 0.292756 -12.111465 -5.079126 0.416546 53.841450 4.210303 4.569266 -36.468475 -1.957113 -1.152499 
